<?xml version="1.0" encoding="UTF-8"?>
<svg version="1.1" xmlns="http://www.w3.org/2000/svg" width="273" height="268">
<path d="M0 0 C9.10013455 21.23364728 3.15469242 51.92871116 -5 73 C-10.28148499 85.62963801 -18.3756003 99.16492667 -30 107 C-30.66 107 -31.32 107 -32 107 C-32 107.66 -32 108.32 -32 109 C-35 111 -35 111 -38 111 C-38 111.66 -38 112.32 -38 113 C-64.31481343 126.45987584 -93.01766513 128.59126097 -122 124 C-129.63798056 96.24412422 -121.08564123 61.68805805 -107.3125 37.25 C-105.55078125 34.203125 -105.55078125 34.203125 -104 32 C-103.34 32 -102.68 32 -102 32 C-101.71125 31.401875 -101.4225 30.80375 -101.125 30.1875 C-100 28 -100 28 -98 25 C-97.34 25 -96.68 25 -96 25 C-96 24.34 -96 23.68 -96 23 C-95.34 23 -94.68 23 -94 23 C-93.6596875 22.071875 -93.6596875 22.071875 -93.3125 21.125 C-91.62070165 18.38589791 -90.00755839 17.94975528 -87 17 C-87 16.34 -87 15.68 -87 15 C-62.13707088 -2.96427653 -29.35494119 -3.70762952 0 0 Z " fill="#1B5C1B" transform="translate(259,8)"/>
<path d="M0 0 C1.18231705 -0.01475876 1.18231705 -0.01475876 2.38851929 -0.02981567 C35.5603989 -0.35801658 35.5603989 -0.35801658 50.29296875 4.23828125 C51.08074707 4.47434082 51.86852539 4.71040039 52.68017578 4.95361328 C75.38436977 11.94194527 94.69681684 25.06686765 106.34521484 46.14208984 C114.46001068 61.87175571 116.96491735 78.33935082 116.70458984 95.87426758 C116.66743752 98.46279386 116.66357676 101.0499031 116.6640625 103.63867188 C116.65424902 105.31121018 116.64259982 106.98373896 116.62890625 108.65625 C116.6266806 109.41673141 116.62445496 110.17721283 116.62216187 110.96073914 C116.53794325 115.72739985 115.78964566 119.70756777 114.29296875 124.23828125 C85.60276093 131.28499896 53.89277816 124.88213571 28.29296875 111.23828125 C28.29296875 110.57828125 28.29296875 109.91828125 28.29296875 109.23828125 C27.57496094 108.99851562 26.85695312 108.75875 26.1171875 108.51171875 C22.87457051 107.04962589 20.7314598 105.25487975 18.10546875 102.86328125 C17.24566406 102.09242188 16.38585937 101.3215625 15.5 100.52734375 C13.50812013 98.46142941 12.36761932 96.86787315 11.29296875 94.23828125 C10.63296875 94.23828125 9.97296875 94.23828125 9.29296875 94.23828125 C-3.89242403 78.38982884 -9.90051834 56.7964072 -9.83984375 36.43359375 C-9.84080048 35.71017792 -9.8417572 34.98676208 -9.84274292 34.24142456 C-9.84341927 32.72035637 -9.84160328 31.1992852 -9.83740234 29.67822266 C-9.83206206 27.37656007 -9.83735788 25.07509399 -9.84375 22.7734375 C-9.84746976 15.54594397 -9.84370313 8.39451126 -8.70703125 1.23828125 C-6.70823418 -0.76051582 -2.73850807 0.0272321 0 0 Z " fill="#551D07" transform="translate(145.70703125,134.76171875)"/>
<path d="M0 0 C0.81388184 -0.0146228 1.62776367 -0.02924561 2.46630859 -0.04431152 C4.80267736 -0.07977889 7.13610734 -0.07915242 9.47265625 -0.06640625 C10.18120255 -0.07948318 10.88974884 -0.09256012 11.61976624 -0.10603333 C13.60961914 -0.06860352 13.60961914 -0.06860352 16.9375 0.5625 C19.78849642 3.81476111 20.3331465 6.67999034 20.484375 10.921875 C20.52530273 11.94684082 20.56623047 12.97180664 20.60839844 14.02783203 C20.63450195 15.11177246 20.66060547 16.19571289 20.6875 17.3125 C20.72133789 18.43124512 20.75517578 19.54999023 20.79003906 20.70263672 C21.14910976 35.06752815 20.30322663 48.5440852 16.9375 62.5625 C16.63199219 63.88121094 16.63199219 63.88121094 16.3203125 65.2265625 C13.77036271 74.891187 8.86454603 84.52995301 2.9375 92.5625 C2.2775 92.5625 1.6175 92.5625 0.9375 92.5625 C0.7003125 93.12453125 0.463125 93.6865625 0.21875 94.265625 C-1.35197697 97.08144042 -3.27721464 99.04205416 -5.5625 101.3125 C-6.75359375 102.51132813 -6.75359375 102.51132813 -7.96875 103.734375 C-10.0625 105.5625 -10.0625 105.5625 -12.0625 105.5625 C-12.0625 106.2225 -12.0625 106.8825 -12.0625 107.5625 C-22.98835602 115.66301191 -35.13846717 120.19950043 -48.3828125 122.984375 C-51.1442486 123.52916807 -51.1442486 123.52916807 -54.0625 124.5625 C-70.41925118 127.46143262 -87.78226327 128.16355399 -104.0625 124.5625 C-106.06894452 115.75053738 -106.46257579 107.13808637 -106.4375 98.125 C-106.43728851 97.42273285 -106.43707703 96.7204657 -106.43685913 95.99691772 C-106.35980615 70.28715115 -100.39462817 47.38113318 -82.0703125 28.484375 C-69.94680896 16.464084 -55.50783036 9.05460079 -39.0625 4.5625 C-38.44036621 4.38058105 -37.81823242 4.19866211 -37.17724609 4.01123047 C-24.91328826 0.53952381 -12.6594566 0.11427982 0 0 Z " fill="#037F7E" transform="translate(112.0625,134.4375)"/>
<path d="M0 0 C1.10316055 -0.00151062 1.10316055 -0.00151062 2.22860718 -0.00305176 C13.09354316 0.00701865 23.44837834 0.41669418 34 3.25 C35.0725 3.5284375 36.145 3.806875 37.25 4.09375 C57.94521587 10.21784449 74.76188208 25.5995121 85 44.25 C94.93411696 64.14030974 98.23223024 85.15036368 98.3125 107.1875 C98.31797852 108.29512695 98.32345703 109.40275391 98.32910156 110.54394531 C98.28202149 115.81529001 98.14587385 120.33415352 96 125.25 C66.26364647 131.02204783 32.91137871 127.29481091 7.26953125 110.45703125 C0.07688311 105.04707043 -6.62290596 98.47547011 -12 91.25 C-12 90.26 -12 89.27 -12 88.25 C-12.66 88.25 -13.32 88.25 -14 88.25 C-26.05246959 63.50077068 -31.03499925 38.74562724 -28.125 11.1875 C-28.04636719 10.33478516 -27.96773437 9.48207031 -27.88671875 8.60351562 C-27.66639373 6.47653177 -27.34229051 4.36079147 -27 2.25 C-19.40125186 -1.54937407 -8.36097345 0.00793228 0 0 Z M-4 24.25 C-4 24.91 -4 25.57 -4 26.25 C-4.66 26.25 -5.32 26.25 -6 26.25 C-10.08341046 32.885542 -11.07851091 38.4930177 -10 46.25 C-8.93730867 49.23652908 -7.67374196 51.53016931 -6 54.25 C-5.34 54.25 -4.68 54.25 -4 54.25 C-3.773125 54.848125 -3.54625 55.44625 -3.3125 56.0625 C-1.36448781 59.30918698 1.30143718 60.73762361 4.890625 61.8203125 C10.83017819 63.03022148 16.39508607 62.54291933 22 60.25 C23.66633043 59.58249336 25.33294781 58.91570205 27 58.25 C27.41362793 58.67410156 27.82725586 59.09820312 28.25341797 59.53515625 C30.12207921 61.44527333 31.99839503 63.34768811 33.875 65.25 C34.52597656 65.91773438 35.17695312 66.58546875 35.84765625 67.2734375 C36.47285156 67.90507813 37.09804687 68.53671875 37.7421875 69.1875 C38.3182373 69.77402344 38.89428711 70.36054687 39.48779297 70.96484375 C40.92324141 72.46586138 40.92324141 72.46586138 43 72.25 C43 72.91 43 73.57 43 74.25 C43.66 74.25 44.32 74.25 45 74.25 C45.495 76.23 45.495 76.23 46 78.25 C43.56065775 78.38501894 41.12875896 78.48403897 38.6875 78.5625 C37.99720703 78.60439453 37.30691406 78.64628906 36.59570312 78.68945312 C34.57421875 78.73828125 34.57421875 78.73828125 31 78.25 C29.15234375 75.84765625 29.15234375 75.84765625 28 73.25 C25.6300673 71.15888292 23.99077013 70.29430993 20.81640625 70.15234375 C16.92809979 70.41411808 14.62581477 70.76499355 11.5 73.1875 C8.9351048 76.7142309 8.57940757 78.87583868 9 83.25 C11.03993908 86.9078218 12.50419262 88.91946174 16 91.25 C19.2807613 91.6833081 21.79259454 91.92496386 24.75390625 90.26953125 C27.83618217 87.85570071 29.30168996 86.05010578 30 82.25 C33.73051229 82.27285908 37.45798188 82.35024673 41.1875 82.4375 C42.77014648 82.44620117 42.77014648 82.44620117 44.38476562 82.45507812 C52.25786507 82.67860461 52.25786507 82.67860461 55.98828125 85.55078125 C56.65214844 86.44152344 57.31601563 87.33226563 58 88.25 C58.680625 88.930625 59.36125 89.61125 60.0625 90.3125 C66.04166667 96.29166667 72.02083333 102.27083333 78 108.25 C78.66 107.92 79.32 107.59 80 107.25 C79.67 105.93 79.34 104.61 79 103.25 C78.34 103.25 77.68 103.25 77 103.25 C77 102.59 77 101.93 77 101.25 C76.21625 100.755 75.4325 100.26 74.625 99.75 C70.76205106 96.07100101 70.70165636 92.39320923 70 87.25 C69.62553789 84.87491513 69.25053197 82.49991594 68.875 80.125 C68.58107457 78.16700441 68.28859883 76.20878779 68 74.25 C68.61875 73.981875 69.2375 73.71375 69.875 73.4375 C72.2995233 72.29443152 72.2995233 72.29443152 74 69.25 C74.54522803 66.18524457 74.54842924 63.31475161 74 60.25 C71.72872666 57.22590636 71.72872666 57.22590636 69 55.25 C68.67 54.92 68.34 54.59 68 54.25 C62.12353969 53.78668563 62.12353969 53.78668563 57 56.25 C57 56.91 57 57.57 57 58.25 C56.34 58.25 55.68 58.25 55 58.25 C53.15023071 61.94953858 53.53601667 66.21138452 54 70.25 C56.52019636 74.12722517 59.631619 75.05862336 64 76.25 C64.13277344 77.09304687 64.26554687 77.93609375 64.40234375 78.8046875 C64.66724609 80.44824219 64.66724609 80.44824219 64.9375 82.125 C65.19853516 83.76082031 65.19853516 83.76082031 65.46484375 85.4296875 C65.85551159 88.18821546 65.85551159 88.18821546 67 90.25 C66.236875 89.775625 65.47375 89.30125 64.6875 88.8125 C62.03589452 87.14893903 62.03589452 87.14893903 59 86.25 C59 85.59 59 84.93 59 84.25 C58.34 84.25 57.68 84.25 57 84.25 C57 83.59 57 82.93 57 82.25 C56.34 82.25 55.68 82.25 55 82.25 C55 81.59 55 80.93 55 80.25 C54.34 80.25 53.68 80.25 53 80.25 C53 79.59 53 78.93 53 78.25 C52.34 78.25 51.68 78.25 51 78.25 C50.731875 77.610625 50.46375 76.97125 50.1875 76.3125 C49.11332248 73.91868314 49.11332248 73.91868314 46 73.25 C46 72.59 46 71.93 46 71.25 C45.34 71.25 44.68 71.25 44 71.25 C44 70.59 44 69.93 44 69.25 C43.34 69.25 42.68 69.25 42 69.25 C42 68.59 42 67.93 42 67.25 C41.34 67.25 40.68 67.25 40 67.25 C40 66.59 40 65.93 40 65.25 C38.01739574 63.56267723 36.0167658 61.89633943 34 60.25 C33.67 59.59 33.34 58.93 33 58.25 C32.34 58.25 31.68 58.25 31 58.25 C31 57.59 31 56.93 31 56.25 C30.34 56.25 29.68 56.25 29 56.25 C29 54.93 29 53.61 29 52.25 C29.66 52.25 30.32 52.25 31 52.25 C33.63804148 44.9767557 35.18767045 39.38396856 32.03125 31.9765625 C31.07528796 30.03049691 30.07604453 28.13182671 29 26.25 C28.34 26.25 27.68 26.25 27 26.25 C27 25.59 27 24.93 27 24.25 C17.10679593 16.99498368 5.93819127 17.05957738 -4 24.25 Z " fill="#062B6A" transform="translate(35,6.75)"/>
<path d="M0 0 C5.5480862 3.18675384 8.46061014 7.15485201 10.171875 13.26171875 C11.26195355 19.33652544 9.95775478 24.00554061 6.57421875 29.12890625 C3.35002856 32.68894958 0.38863498 35.29403638 -4.42578125 36.12890625 C-8.96693598 36.27306989 -12.99591466 36.2363729 -17.42578125 35.12890625 C-17.42578125 34.46890625 -17.42578125 33.80890625 -17.42578125 33.12890625 C-18.29203125 33.03609375 -18.29203125 33.03609375 -19.17578125 32.94140625 C-22.88614629 31.60155221 -24.56139302 28.58814229 -26.515625 25.2890625 C-28.54939208 20.46213891 -28.42120374 14.60923584 -26.48046875 9.7734375 C-20.68136395 0.0535543 -10.98980539 -3.94641965 0 0 Z " fill="#03296A" transform="translate(55.42578125,29.87109375)"/>
<path d="M0 0 C4.29597139 1.64990206 7.00517646 4.81742807 10.125 8.0625 C13.69553366 12.0044894 13.69553366 12.0044894 18 15 C18 15.66 18 16.32 18 17 C18.66 17 19.32 17 20 17 C20.66 18.32 21.32 19.64 22 21 C20.0137131 22.9862869 16.33002678 22.27479052 13.625 22.3125 C12.93921875 22.34150391 12.2534375 22.37050781 11.546875 22.40039062 C8.21576824 22.44251552 6.4829701 22.46292589 4.0234375 20.10546875 C3 18 3 18 3 16 C-0.65079826 14.38935371 -4.0507432 13.55105909 -8 13 C-8 12.67 -8 12.34 -8 12 C-2.96488101 10.9929762 0.23947038 11.02612187 5 13 C5.33 12.34 5.66 11.68 6 11 C6.33 10.34 6.66 9.68 7 9 C6.01 8.34 5.02 7.68 4 7 C3.67 6.34 3.34 5.68 3 5 C1.68 5 0.36 5 -1 5 C-1 4.34 -1 3.68 -1 3 C-1.66 2.67 -2.32 2.34 -3 2 C-2.01 1.34 -1.02 0.68 0 0 Z " fill="#273A68" transform="translate(60,64)"/>
<path d="M0 0 C2.4375 1.4375 2.4375 1.4375 4 4 C4.17728184 7.11905242 3.96048032 10.02078558 3 13 C-0.51824511 15.34549674 -1.85775694 15.57991403 -6 15 C-9.35694984 12.51877621 -10.78441871 11.05634831 -11.625 6.9375 C-11 4 -11 4 -8.875 1.625 C-5.50335677 -0.28071139 -3.80994895 -0.64850195 0 0 Z " fill="#042767" transform="translate(58,80)"/>
<path d="M0 0 C2.92587775 2.0560222 3.84701429 3.57703952 5.0625 6.9375 C5 10 5 10 2.9375 12.875 C-0.4408306 15.31889873 -1.9286304 15.54284928 -6 15 C-6.66 14.67 -7.32 14.34 -8 14 C-8 13.34 -8 12.68 -8 12 C-8.66 12 -9.32 12 -10 12 C-10.48372093 4.74418605 -10.48372093 4.74418605 -8.375 1.5 C-5.27859404 -0.45562482 -3.60146865 -0.60024477 0 0 Z " fill="#032560" transform="translate(102,64)"/>
<path d="M0 0 C0.6283374 0.15774902 1.2566748 0.31549805 1.90405273 0.47802734 C6.11490789 1.18797201 10.27136471 1.25542471 14.53515625 1.3515625 C15.90866493 1.38629166 15.90866493 1.38629166 17.30992126 1.42172241 C19.24049679 1.46922332 21.17112883 1.51447355 23.10180664 1.55761719 C26.05573034 1.62484593 29.00925123 1.70261079 31.96289062 1.78125 C33.84113071 1.82615806 35.71938564 1.87044984 37.59765625 1.9140625 C38.48002457 1.93796051 39.36239288 1.96185852 40.27149963 1.98648071 C41.50814613 2.0117836 41.50814613 2.0117836 42.76977539 2.03759766 C43.85301842 2.06305161 43.85301842 2.06305161 44.95814514 2.08901978 C47.0443576 2.07966574 47.0443576 2.07966574 49.13938904 1.37265015 C49.75339066 1.2496756 50.36739227 1.12670105 51 1 C51.66 1.66 52.32 2.32 53 3 C35.8062564 7.22302474 17.10887039 5.90528563 0 2 C0 1.34 0 0.68 0 0 Z " fill="#75544C" transform="translate(207,256)"/>
<path d="M0 0 C0 0.66 0 1.32 0 2 C1.65 2 3.3 2 5 2 C5 2.33 5 2.66 5 3 C-7.3244872 5.39227481 -19.49790204 5.21003783 -32 5 C-32 4.01 -32 3.02 -32 2 C-31.29391602 1.97494385 -30.58783203 1.9498877 -29.86035156 1.92407227 C-26.65672491 1.80792631 -23.45337882 1.68528397 -20.25 1.5625 C-19.13882813 1.52318359 -18.02765625 1.48386719 -16.8828125 1.44335938 C-15.27792969 1.38051758 -15.27792969 1.38051758 -13.640625 1.31640625 C-12.16384277 1.26141968 -12.16384277 1.26141968 -10.65722656 1.20532227 C-6.93844266 0.91797412 -3.77969308 0 0 0 Z " fill="#37527A" transform="translate(126,129)"/>
<path d="M0 0 C0.66 0.33 1.32 0.66 2 1 C1.93941406 1.75539062 1.87882813 2.51078125 1.81640625 3.2890625 C0.96196529 14.51510222 0.47513734 25.7525366 0 37 C0.66 37 1.32 37 2 37 C1.67 38.98 1.34 40.96 1 43 C0.01 42.67 -0.98 42.34 -2 42 C-2.04977421 37.30437734 -2.08589521 32.60891137 -2.10986328 27.91308594 C-2.11986475 26.31865765 -2.13347031 24.72424743 -2.15087891 23.12988281 C-2.17538695 20.82612624 -2.18654176 18.52261405 -2.1953125 16.21875 C-2.21079636 15.16512268 -2.21079636 15.16512268 -2.22659302 14.09020996 C-2.22770188 9.0979605 -1.36154543 4.80545446 0 0 Z " fill="#684037" transform="translate(138,137)"/>
<path d="M0 0 C2.64 0.99 5.28 1.98 8 3 C8.66 7.62 9.32 12.24 10 17 C6.30756248 16.07689062 4.74454257 15.45048444 2 13 C2 12.34 2 11.68 2 11 C1.34 11 0.68 11 0 11 C0 10.34 0 9.68 0 9 C-0.66 9 -1.32 9 -2 9 C-2 8.34 -2 7.68 -2 7 C-2.66 7 -3.32 7 -4 7 C-4 6.34 -4 5.68 -4 5 C-4.66 4.67 -5.32 4.34 -6 4 C-2.10635283 4.57683662 0.01189041 6.54821777 3 9 C3.99 9.33 4.98 9.66 6 10 C6 8.02 6 6.04 6 4 C4.02 4 2.04 4 0 4 C0 2.68 0 1.36 0 0 Z " fill="#3E5175" transform="translate(92,80)"/>
<path d="M0 0 C4.07376031 1.61010527 6.76507069 4.53822271 9.75 7.625 C10.25660156 8.140625 10.76320313 8.65625 11.28515625 9.1875 C12.52803902 10.45383339 13.76465276 11.7263144 15 13 C12 14 12 14 10.125 13.375 C7.82756392 12.7220546 7.82756392 12.7220546 5.5625 14.5625 C4.716875 15.036875 3.87125 15.51125 3 16 C0.5625 15.25 0.5625 15.25 -2 14 C-3.9924325 13.62406934 -5.9918674 13.28020455 -8 13 C-8 12.67 -8 12.34 -8 12 C-2.96488101 10.9929762 0.23947038 11.02612187 5 13 C5.33 12.34 5.66 11.68 6 11 C6.33 10.34 6.66 9.68 7 9 C6.01 8.34 5.02 7.68 4 7 C3.67 6.34 3.34 5.68 3 5 C1.68 5 0.36 5 -1 5 C-1 4.34 -1 3.68 -1 3 C-1.66 2.67 -2.32 2.34 -3 2 C-2.01 1.34 -1.02 0.68 0 0 Z " fill="#122D5C" transform="translate(60,64)"/>
<path d="M0 0 C2.92587775 2.0560222 3.84701429 3.57703952 5.0625 6.9375 C5 10 5 10 2.9375 12.875 C-0.41275581 15.29858931 -1.96421785 15.46927699 -6 15 C-3.35261084 13.5393715 -2.10551666 13 1 13 C1 9.7 1 6.4 1 3 C-2.12290635 3.48578543 -4.99580359 3.9986012 -8 5 C-8.33 7.31 -8.66 9.62 -9 12 C-9.33 12 -9.66 12 -10 12 C-10.48372093 4.74418605 -10.48372093 4.74418605 -8.375 1.5 C-5.27859404 -0.45562482 -3.60146865 -0.60024477 0 0 Z " fill="#4E5D82" transform="translate(102,64)"/>
<path d="M0 0 C0.33 0 0.66 0 1 0 C1.38147924 19.04266119 0.72046235 36.50810185 -4 55 C-5.0625 53.1875 -5.0625 53.1875 -6 51 C-5.67 50.01 -5.34 49.02 -5 48 C-4.7834375 46.4840625 -4.7834375 46.4840625 -4.5625 44.9375 C-3.74568101 39.21976709 -2.82924365 33.48773096 -1 28 C-0.84929203 25.86338742 -0.7514034 23.72287876 -0.68359375 21.58203125 C-0.64169922 20.32841797 -0.59980469 19.07480469 -0.55664062 17.78320312 C-0.51732422 16.47287109 -0.47800781 15.16253906 -0.4375 13.8125 C-0.39429008 12.47720022 -0.350675 11.14191348 -0.30664062 9.80664062 C-0.20043498 6.53786703 -0.09839003 3.26901667 0 0 Z " fill="#6F9070" transform="translate(261,18)"/>
<path d="M0 0 C0.33 0.99 0.66 1.98 1 3 C17.335 3.99 17.335 3.99 34 5 C34 5.66 34 6.32 34 7 C10.21122564 7.41277905 10.21122564 7.41277905 0 5 C0 3.35 0 1.7 0 0 Z " fill="#4A918D" transform="translate(8,254)"/>
<path d="M0 0 C0.33 0 0.66 0 1 0 C1 1.65 1 3.3 1 5 C1.66 5 2.32 5 3 5 C3.33 5.66 3.66 6.32 4 7 C6.54024004 7.47574438 9.00051464 7.84007547 11.5625 8.125 C12.62887695 8.25455078 12.62887695 8.25455078 13.71679688 8.38671875 C15.47689312 8.59934783 17.23834164 8.80072697 19 9 C19 9.33 19 9.66 19 10 C25.27 10.33 31.54 10.66 38 11 C38 11.33 38 11.66 38 12 C12.24377525 12.48837649 12.24377525 12.48837649 1 10 C-0.60725635 6.78548731 -0.05748185 3.56387464 0 0 Z M3 1 C3.33 2.32 3.66 3.64 4 5 C3.34 4.34 2.68 3.68 2 3 C2.33 2.34 2.66 1.68 3 1 Z " fill="#748E74" transform="translate(136,122)"/>
<path d="M0 0 C-0.66 0 -1.32 0 -2 0 C-2.33 0.66 -2.66 1.32 -3 2 C-5.31 2 -7.62 2 -10 2 C-10.33 2.99 -10.66 3.98 -11 5 C-12.258125 5.103125 -13.51625 5.20625 -14.8125 5.3125 C-18.13957417 5.69609156 -18.13957417 5.69609156 -20.875 7.5625 C-21.24625 8.036875 -21.6175 8.51125 -22 9 C-22.66 9 -23.32 9 -24 9 C-24.33 9.66 -24.66 10.32 -25 11 C-26.82510997 11.78015621 -28.68606676 12.47795406 -30.5625 13.125 C-31.57441406 13.47820313 -32.58632812 13.83140625 -33.62890625 14.1953125 C-34.41136719 14.46085937 -35.19382813 14.72640625 -36 15 C-36 14.34 -36 13.68 -36 13 C-27.63140514 6.95341749 -10.34674527 -3.44891509 0 0 Z " fill="#5B805C" transform="translate(208,10)"/>
<path d="M0 0 C-0.66 0.66 -1.32 1.32 -2 2 C-1.67 2.66 -1.34 3.32 -1 4 C-0.01 4.33 0.98 4.66 2 5 C2.33 4.01 2.66 3.02 3 2 C3.33 2.66 3.66 3.32 4 4 C4.99 4.33 5.98 4.66 7 5 C2.60677071 7.05932623 -1.16940788 7.92332393 -6 8 C-8.3125 5.6875 -8.3125 5.6875 -10 3 C-10.99 2.34 -11.98 1.68 -13 1 C-8.62426048 0.40667939 -4.42471556 -0.13827236 0 0 Z " fill="#04235D" transform="translate(55,69)"/>
<path d="M0 0 C0.93199219 0.00386719 1.86398438 0.00773437 2.82421875 0.01171875 C5.3125 0.3125 5.3125 0.3125 8.3125 2.3125 C7.9825 2.9725 7.6525 3.6325 7.3125 4.3125 C6.3225 3.9825 5.3325 3.6525 4.3125 3.3125 C2.35572445 3.15495296 2.35572445 3.15495296 0.3125 3.1875 C-0.368125 3.18492188 -1.04875 3.18234375 -1.75 3.1796875 C-3.90624781 3.24618874 -3.90624781 3.24618874 -6.6875 4.3125 C-6.6875 4.9725 -6.6875 5.6325 -6.6875 6.3125 C-7.3475 6.3125 -8.0075 6.3125 -8.6875 6.3125 C-9.0175 9.9425 -9.3475 13.5725 -9.6875 17.3125 C-10.0175 17.3125 -10.3475 17.3125 -10.6875 17.3125 C-11.0175 12.6925 -11.3475 8.0725 -11.6875 3.3125 C-4.88534657 -0.08857672 -4.88534657 -0.08857672 0 0 Z " fill="#314672" transform="translate(98.6875,58.6875)"/>
<path d="M0 0 C3.21351132 4.28468175 3.36713595 5.03475523 3.29296875 10.078125 C3.28330078 11.23828125 3.27363281 12.3984375 3.26367188 13.59375 C3.23853516 14.8003125 3.21339844 16.006875 3.1875 17.25 C3.17396484 18.47203125 3.16042969 19.6940625 3.14648438 20.953125 C3.1111398 23.96919498 3.0617956 26.98437487 3 30 C2.34 30 1.68 30 1 30 C0.67 20.1 0.34 10.2 0 0 Z " fill="#47597B" transform="translate(130,96)"/>
<path d="M0 0 C2.77291781 0.48933844 5.28292695 1.10233528 7.9375 2.0625 C12.25150194 3.38311284 15.4887746 3.63260598 19.6875 1.875 C20.450625 1.58625 21.21375 1.2975 22 1 C22.99 1.66 23.98 2.32 25 3 C18.12877138 6.43561431 12.59048635 6.89762159 5 5 C5 4.34 5 3.68 5 3 C4.360625 2.87625 3.72125 2.7525 3.0625 2.625 C2.381875 2.41875 1.70125 2.2125 1 2 C0.67 1.34 0.34 0.68 0 0 Z " fill="#32446C" transform="translate(33,60)"/>
<path d="M0 0 C0.33 0 0.66 0 1 0 C1.02690844 2.62506802 1.04679404 5.24986173 1.0625 7.875 C1.07087891 8.62136719 1.07925781 9.36773437 1.08789062 10.13671875 C1.11328125 15.7734375 1.11328125 15.7734375 0 18 C-0.22074841 19.73732806 -0.39130638 21.48118407 -0.53515625 23.2265625 C-0.62216797 24.2578125 -0.70917969 25.2890625 -0.79882812 26.3515625 C-0.88583984 27.43179688 -0.97285156 28.51203125 -1.0625 29.625 C-1.15337891 30.71296875 -1.24425781 31.8009375 -1.33789062 32.921875 C-1.56225951 35.61430157 -1.78280114 38.30698709 -2 41 C-2.33 41 -2.66 41 -3 41 C-3.50910934 27.12205659 -1.95560238 13.72909154 0 0 Z " fill="#7B987B" transform="translate(138,81)"/>
<path d="M0 0 C0.625 1.875 0.625 1.875 1 4 C-1 6 -1 6 -3.625 6.125 C-4.40875 6.08375 -5.1925 6.0425 -6 6 C-6.33 6.66 -6.66 7.32 -7 8 C-9 5 -9 5 -8.875 2.9375 C-8 1 -8 1 -6.1875 -0.3125 C-3.67700322 -1.10151327 -2.44507934 -0.87324262 0 0 Z " fill="#143572" transform="translate(72,77)"/>
<path d="M0 0 C4.03375858 7.27426757 5.17440553 17.75933876 5 26 C4.34 26.66 3.68 27.32 3 28 C0.7549974 18.72065591 0.39327237 9.5006324 0 0 Z " fill="#364D78" transform="translate(7,40)"/>
<path d="M0 0 C1.32547852 0.02030273 1.32547852 0.02030273 2.67773438 0.04101562 C4.84792023 0.07620783 7.01779033 0.13001015 9.1875 0.1875 C9.1875 1.1775 9.1875 2.1675 9.1875 3.1875 C8.11371094 3.15269531 7.03992188 3.11789063 5.93359375 3.08203125 C4.49741161 3.05387082 3.06121238 3.02657309 1.625 3 C0.92052734 2.97486328 0.21605469 2.94972656 -0.50976562 2.92382812 C-5.69253315 2.85217696 -9.17514182 3.86577402 -13.8125 6.1875 C-14.1425 5.1975 -14.4725 4.2075 -14.8125 3.1875 C-10.08463037 -0.54193753 -5.7302468 -0.16665147 0 0 Z " fill="#344572" transform="translate(46.8125,23.8125)"/>
<path d="M0 0 C2.07089697 6.21269091 -1.89948373 13.0410244 -4.6875 18.625 C-5.45028172 20.08756083 -6.21814659 21.54754505 -7 23 C-7.33 23 -7.66 23 -8 23 C-7.67 19.7 -7.34 16.4 -7 13 C-5.68 12.67 -4.36 12.34 -3 12 C-3.0928125 10.700625 -3.0928125 10.700625 -3.1875 9.375 C-2.97544498 5.55800967 -1.87955693 3.28922464 0 0 Z " fill="#499A98" transform="translate(128,194)"/>
<path d="M0 0 C4.54109672 4.26587874 8.24735246 9.03612328 12 14 C11.67 14.66 11.34 15.32 11 16 C10.01 15.67 9.02 15.34 8 15 C8 14.34 8 13.68 8 13 C7.34 13 6.68 13 6 13 C4.68 10.03 3.36 7.06 2 4 C1.01 4 0.02 4 -1 4 C-0.67 2.68 -0.34 1.36 0 0 Z " fill="#704A40" transform="translate(237,162)"/>
<path d="M0 0 C0.66 0.33 1.32 0.66 2 1 C1.67 9.25 1.34 17.5 1 26 C0.67 26 0.34 26 0 26 C-1.33875854 17.46541431 -1.97965319 8.46851644 0 0 Z " fill="#4A9394" transform="translate(131,156)"/>
<path d="M0 0 C5.22717974 0.95408718 10.08138354 1.95057647 15 4 C16.9924325 4.37593066 18.9918674 4.71979545 21 5 C19 7 19 7 17.15234375 7.08203125 C11.6676971 6.41458748 5.94904256 5.58499098 1 3 C0.67 2.01 0.34 1.02 0 0 Z " fill="#324771" transform="translate(60,124)"/>
<path d="M0 0 C0.99 0.33 1.98 0.66 3 1 C3 1.66 3 2.32 3 3 C3.66 3 4.32 3 5 3 C5.33 2.34 5.66 1.68 6 1 C6 1.66 6 2.32 6 3 C6.99 3 7.98 3 9 3 C9 4.98 9 6.96 9 9 C5.51460083 8.35455571 2.97180943 6.89865603 0 5 C0.33 4.01 0.66 3.02 1 2 C0.34 1.67 -0.32 1.34 -1 1 C-0.67 0.67 -0.34 0.34 0 0 Z " fill="#07245E" transform="translate(89,81)"/>
<path d="M0 0 C1.32 0.33 2.64 0.66 4 1 C3.67 1.66 3.34 2.32 3 3 C2.34 3 1.68 3 1 3 C0.74476562 3.58265625 0.48953125 4.1653125 0.2265625 4.765625 C-1.11741087 7.21388223 -2.61810296 8.81743248 -4.625 10.75 C-5.57246094 11.67039063 -5.57246094 11.67039063 -6.5390625 12.609375 C-7.02117187 13.06828125 -7.50328125 13.5271875 -8 14 C-8.66 13.34 -9.32 12.68 -10 12 C-9 9 -9 9 -6.6875 7.6875 C-3.40823905 5.62842917 -1.9726879 3.28781317 0 0 Z " fill="#217B77" transform="translate(112,224)"/>
<path d="M0 0 C3.44017871 -0.31274352 5.42597048 -0.33853023 8.4375 1.4375 C10.79839207 5.30936299 9.84741312 8.6892463 9 13 C8.01 13.33 7.02 13.66 6 14 C6 12.35 6 10.7 6 9 C6.66 9 7.32 9 8 9 C8 7.68 8 6.36 8 5 C6.68 4.67 5.36 4.34 4 4 C4 3.34 4 2.68 4 2 C2.68 1.34 1.36 0.68 0 0 Z " fill="#4F5E81" transform="translate(52,80)"/>
<path d="M0 0 C1.32 0.33 2.64 0.66 4 1 C3.625 2.9375 3.625 2.9375 3 5 C2.01 5.495 2.01 5.495 1 6 C0.34444881 8.52733235 0.34444881 8.52733235 0 11 C-0.66 11 -1.32 11 -2 11 C-3.80411967 8.24075815 -4.0127245 7.11027897 -3.625 3.75 C-3.41875 2.8425 -3.2125 1.935 -3 1 C-2.01 1.33 -1.02 1.66 0 2 C0 1.34 0 0.68 0 0 Z " fill="#05286D" transform="translate(99,66)"/>
<path d="M0 0 C0.66 0 1.32 0 2 0 C2 2.64 2 5.28 2 8 C1.67 7.01 1.34 6.02 1 5 C-2.76430913 6.25476971 -3.05044108 7.69422618 -5 11 C-5.66 11 -6.32 11 -7 11 C-7.33 12.65 -7.66 14.3 -8 16 C-8.99 16.33 -9.98 16.66 -11 17 C-9.66749209 13.4124787 -8.169283 10.1635377 -6 7 C-5.34 7 -4.68 7 -4 7 C-3.71125 6.401875 -3.4225 5.80375 -3.125 5.1875 C-2 3 -2 3 0 0 Z " fill="#5C8059" transform="translate(161,33)"/>
<path d="M0 0 C0.71567139 0.15847412 1.43134277 0.31694824 2.16870117 0.48022461 C4.91594802 0.98456957 7.5123923 1.20226167 10.30078125 1.31640625 C11.27724609 1.35830078 12.25371094 1.40019531 13.25976562 1.44335938 C14.77086914 1.50233398 14.77086914 1.50233398 16.3125 1.5625 C17.85260742 1.62727539 17.85260742 1.62727539 19.42382812 1.69335938 C21.94909569 1.79906825 24.47445562 1.90116468 27 2 C27 2.33 27 2.66 27 3 C24.03 3 21.06 3 18 3 C17.67 3.66 17.34 4.32 17 5 C11.39 4.01 5.78 3.02 0 2 C0 1.34 0 0.68 0 0 Z " fill="#6B433A" transform="translate(207,256)"/>
<path d="M0 0 C0.33 0.66 0.66 1.32 1 2 C0.34 2 -0.32 2 -1 2 C-0.79503906 2.59167969 -0.59007813 3.18335937 -0.37890625 3.79296875 C0.9997571 7.83660816 2.31750847 11.76855249 3 16 C2.34 16 1.68 16 1 16 C1 17.98 1 19.96 1 22 C0.67 22 0.34 22 0 22 C-1.34495828 14.90294338 -2.24091535 8.2274605 -2 1 C-1.34 0.67 -0.68 0.34 0 0 Z " fill="#546383" transform="translate(105,80)"/>
<path d="M0 0 C3 2 3 2 4.25 5.125 C5.1214209 9.62734129 4.9245378 12.53140064 4 17 C3.34 17.33 2.68 17.66 2 18 C1.0117122 14.73401767 0.92595101 11.83912563 1 8.4375 C1.07052607 5.18889281 1.03597478 3.10792434 0 0 Z " fill="#45527D" transform="translate(61,36)"/>
<path d="M0 0 C0 0.99 0 1.98 0 3 C-2.64 3.66 -5.28 4.32 -8 5 C-8.33 7.31 -8.66 9.62 -9 12 C-9.33 12 -9.66 12 -10 12 C-10.48372093 4.74418605 -10.48372093 4.74418605 -8.375 1.5 C-5.39901677 -0.37956836 -3.45669582 -0.31424507 0 0 Z " fill="#344571" transform="translate(102,64)"/>
<path d="M0 0 C-0.556875 0.226875 -1.11375 0.45375 -1.6875 0.6875 C-4.22472385 1.99203598 -4.22472385 1.99203598 -6.625 4.625 C-7.40875 5.40875 -8.1925 6.1925 -9 7 C-9.66 7 -10.32 7 -11 7 C-11.66 7.66 -12.32 8.32 -13 9 C-13 7.68 -13 6.36 -13 5 C-8.78423029 0.97159783 -5.84068778 -1.81262724 0 0 Z " fill="#43537B" transform="translate(45,30)"/>
<path d="M0 0 C2.97 0 5.94 0 9 0 C10.60355101 3.50776784 11.22036864 6.14354879 11 10 C10.76539063 9.38640625 10.53078125 8.7728125 10.2890625 8.140625 C8.6609418 5.4369579 7.27366164 4.90946466 4.375 3.75 C3.55773437 3.41484375 2.74046875 3.0796875 1.8984375 2.734375 C1.27195313 2.49203125 0.64546875 2.2496875 0 2 C0 1.34 0 0.68 0 0 Z " fill="#476F46" transform="translate(250,8)"/>
<path d="M0 0 C0.66 0.33 1.32 0.66 2 1 C1.2884375 1.6496875 1.2884375 1.6496875 0.5625 2.3125 C-1.23686957 4.02309613 -1.23686957 4.02309613 -2 7 C-1.34 7 -0.68 7 0 7 C0 7.99 0 8.98 0 10 C1.1446875 10.1546875 1.1446875 10.1546875 2.3125 10.3125 C5.17059424 11.04364039 6.15742885 11.76951913 8 14 C3.98313013 14.46707789 2.43498188 14.32150834 -0.875 11.875 C-3 9 -3 9 -3.5 5.875 C-2.96567755 2.80264589 -2.45179712 1.83884784 0 0 Z " fill="#4F5D83" transform="translate(50,81)"/>
<path d="M0 0 C1.9375 0.75 1.9375 0.75 4 2 C4.75 4.125 4.75 4.125 5 6 C4.01 6 3.02 6 2 6 C2.33 6.66 2.66 7.32 3 8 C0.625 7.6875 0.625 7.6875 -2 7 C-2.66 6.01 -3.32 5.02 -4 4 C-3.01 4 -2.02 4 -1 4 C-0.67 2.68 -0.34 1.36 0 0 Z " fill="#1B3262" transform="translate(87,76)"/>
<path d="M0 0 C1.32 0 2.64 0 4 0 C4 0.66 4 1.32 4 2 C5.175625 2.3403125 5.175625 2.3403125 6.375 2.6875 C9 4 9 4 10.3125 6.625 C10.6528125 7.800625 10.6528125 7.800625 11 9 C10.01 9.495 10.01 9.495 9 10 C9 9.34 9 8.68 9 8 C8.34 8 7.68 8 7 8 C7 7.34 7 6.68 7 6 C6.401875 5.7525 5.80375 5.505 5.1875 5.25 C2.71352479 3.83629988 1.56629745 2.34944617 0 0 Z " fill="#536486" transform="translate(68,66)"/>
<path d="M0 0 C0.33 0 0.66 0 1 0 C1.02698189 1.62490954 1.04638757 3.24994633 1.0625 4.875 C1.07410156 5.77992187 1.08570312 6.68484375 1.09765625 7.6171875 C1 10 1 10 0 12 C-0.66 12 -1.32 12 -2 12 C-2.33 13.98 -2.66 15.96 -3 18 C-3.66 18 -4.32 18 -5 18 C-5 16.68 -5 15.36 -5 14 C-4.34 14 -3.68 14 -3 14 C-2.86722656 13.32453125 -2.73445313 12.6490625 -2.59765625 11.953125 C-2.33275391 10.61507812 -2.33275391 10.61507812 -2.0625 9.25 C-1.88847656 8.36828125 -1.71445313 7.4865625 -1.53515625 6.578125 C-1.07631512 4.36764947 -0.56663926 2.18487932 0 0 Z " fill="#505B7F" transform="translate(69,45)"/>
<path d="M0 0 C1.98 0 3.96 0 6 0 C3.87774717 2.2941487 1.82567117 3.85401234 -0.9375 5.3125 C-1.94103516 5.86357422 -1.94103516 5.86357422 -2.96484375 6.42578125 C-5 7 -5 7 -7.25390625 6.10546875 C-7.83011719 5.74066406 -8.40632813 5.37585938 -9 5 C-7.35 5 -5.7 5 -4 5 C-4 4.34 -4 3.68 -4 3 C-3.01 3 -2.02 3 -1 3 C-0.67 2.01 -0.34 1.02 0 0 Z " fill="#45918D" transform="translate(89,244)"/>
<path d="M0 0 C0.33 0 0.66 0 1 0 C1.33 3.3 1.66 6.6 2 10 C2.99 10 3.98 10 5 10 C5 12.64 5 15.28 5 18 C1.77460279 15.06782072 0.11355433 12.62609803 -0.1953125 8.203125 C-0.17210938 7.22859375 -0.14890625 6.2540625 -0.125 5.25 C-0.09792969 3.77273437 -0.09792969 3.77273437 -0.0703125 2.265625 C-0.04710938 1.51796875 -0.02390625 0.7703125 0 0 Z " fill="#596789" transform="translate(28,42)"/>
<path d="M0 0 C1.23556641 0.01740234 1.23556641 0.01740234 2.49609375 0.03515625 C3.32238281 0.04417969 4.14867187 0.05320312 5 0.0625 C5.63808594 0.07410156 6.27617187 0.08570313 6.93359375 0.09765625 C4.49391354 3.75717656 2.97592054 3.75021399 -1.06640625 5.09765625 C-1.72640625 6.08765625 -2.38640625 7.07765625 -3.06640625 8.09765625 C-3.10882348 5.7647085 -3.10733562 3.43063058 -3.06640625 1.09765625 C-2.06640625 0.09765625 -2.06640625 0.09765625 0 0 Z " fill="#2A3E6D" transform="translate(12.06640625,7.90234375)"/>
<path d="M0 0 C-0.19140625 1.85546875 -0.19140625 1.85546875 -1 4 C-3.21484375 5.30078125 -3.21484375 5.30078125 -5.9375 6.3125 C-7.28134766 6.83263672 -7.28134766 6.83263672 -8.65234375 7.36328125 C-11 8 -11 8 -13 7 C-4.79310345 0 -4.79310345 0 0 0 Z " fill="#43928F" transform="translate(54,147)"/>
<path d="M0 0 C3.61246888 3.61246888 4.125 9.03845507 4.125 14 C4.08375 14.99 4.0425 15.98 4 17 C3.34 16.67 2.68 16.34 2 16 C1.52402634 13.29400158 1.15906371 10.66404596 0.875 7.9375 C0.78863281 7.17888672 0.70226562 6.42027344 0.61328125 5.63867188 C0.40060483 3.76003014 0.19924541 1.88011364 0 0 Z " fill="#59698A" transform="translate(126,69)"/>
<path d="M0 0 C2.475 0.99 2.475 0.99 5 2 C4.67 2.99 4.34 3.98 4 5 C-1.75 6.125 -1.75 6.125 -4 5 C-2.93453047 2.86906094 -1.70840281 1.63412443 0 0 Z " fill="#04286D" transform="translate(63,71)"/>
<path d="M0 0 C3.96 0.33 7.92 0.66 12 1 C11.67 1.99 11.34 2.98 11 4 C7.7 4 4.4 4 1 4 C0.67 2.68 0.34 1.36 0 0 Z " fill="#324978" transform="translate(38,68)"/>
<path d="M0 0 C-2.37338238 3.56007358 -3.66190568 3.85110773 -7.625 5.1875 C-8.62789062 5.53167969 -9.63078125 5.87585938 -10.6640625 6.23046875 C-11.43492187 6.48441406 -12.20578125 6.73835938 -13 7 C-13 6.34 -13 5.68 -13 5 C-9.10648082 1.81175849 -5.18450403 -0.81007875 0 0 Z " fill="#4D754B" transform="translate(185,18)"/>
<path d="M0 0 C0.33 0 0.66 0 1 0 C1 1.65 1 3.3 1 5 C1.66 5 2.32 5 3 5 C3.33 5.99 3.66 6.98 4 8 C5.65 8.33 7.3 8.66 9 9 C9 9.33 9 9.66 9 10 C6.36 10 3.72 10 1 10 C-0.60725635 6.78548731 -0.05748185 3.56387464 0 0 Z M3 1 C3.33 2.32 3.66 3.64 4 5 C3.34 4.34 2.68 3.68 2 3 C2.33 2.34 2.66 1.68 3 1 Z " fill="#597E59" transform="translate(136,122)"/>
<path d="M0 0 C0.66 0 1.32 0 2 0 C2.33 4.29 2.66 8.58 3 13 C2.01 13.495 2.01 13.495 1 14 C-0.04976964 10.85069107 -0.10131595 8.61185544 -0.0625 5.3125 C-0.05347656 4.31863281 -0.04445313 3.32476562 -0.03515625 2.30078125 C-0.02355469 1.54152344 -0.01195312 0.78226563 0 0 Z " fill="#051F4F" transform="translate(7,29)"/>
<path d="M0 0 C2 3 2 3 1.625 5.1875 C1.41875 5.785625 1.2125 6.38375 1 7 C-0.875 6.8125 -0.875 6.8125 -3 6 C-4.25 3.4375 -4.25 3.4375 -5 1 C-3.35 0.67 -1.7 0.34 0 0 Z " fill="#1D3A73" transform="translate(56,67)"/>
<path d="M0 0 C2.64 0 5.28 0 8 0 C7.67 0.99 7.34 1.98 7 3 C1.79245283 5.26415094 1.79245283 5.26415094 -2 4 C-1.34 2.68 -0.68 1.36 0 0 Z " fill="#3C673D" transform="translate(209,8)"/>
<path d="M0 0 C-2.42130331 2.42130331 -3.80111377 2.52840504 -7.125 3.125 C-8.03507813 3.29257813 -8.94515625 3.46015625 -9.8828125 3.6328125 C-10.58148438 3.75398437 -11.28015625 3.87515625 -12 4 C-11.1875 2.0625 -11.1875 2.0625 -10 0 C-6.30581799 -1.231394 -3.7943739 -0.64432764 0 0 Z " fill="#5F815F" transform="translate(208,126)"/>
<path d="M0 0 C0.99 0.33 1.98 0.66 3 1 C3 1.66 3 2.32 3 3 C4.45833358 4.62514468 4.45833358 4.62514468 6 6 C5.67 6.99 5.34 7.98 5 9 C2.69 6.69 0.38 4.38 -2 2 C-1.34 1.34 -0.68 0.68 0 0 Z " fill="#394E78" transform="translate(30,102)"/>
<path d="M0 0 C1.65 0 3.3 0 5 0 C4.38125 0.165 3.7625 0.33 3.125 0.5 C-0.27756949 2.90181375 -0.22612026 6.00162134 -1 10 C-1.33 9.01 -1.66 8.02 -2 7 C-2.66 7 -3.32 7 -4 7 C-3.67 5.68 -3.34 4.36 -3 3 C-2.34 3 -1.68 3 -1 3 C-0.67 2.01 -0.34 1.02 0 0 Z " fill="#07225A" transform="translate(52,81)"/>
<path d="M0 0 C-4.39251833 2.02055843 -8.15340923 3.40895235 -13 4 C-10.03113509 -0.45329737 -5.1149554 -2.04598216 0 0 Z " fill="#408C88" transform="translate(77,253)"/>
<path d="M0 0 C1 2 1 2 0.22265625 4.3828125 C-0.16019531 5.28773437 -0.54304687 6.19265625 -0.9375 7.125 C-1.31777344 8.03507812 -1.69804687 8.94515625 -2.08984375 9.8828125 C-2.39019531 10.58148438 -2.69054687 11.28015625 -3 12 C-3.66 11.01 -4.32 10.02 -5 9 C-4.67 8.01 -4.34 7.02 -4 6 C-3.34 5.67 -2.68 5.34 -2 5 C-2 3.68 -2 2.36 -2 1 C-1.34 0.67 -0.68 0.34 0 0 Z " fill="#5E855D" transform="translate(255,73)"/>
<path d="M0 0 C0.99 0.33 1.98 0.66 3 1 C3.80078125 2.7421875 3.80078125 2.7421875 4.3125 4.875 C4.58513672 5.92300781 4.58513672 5.92300781 4.86328125 6.9921875 C5 9 5 9 3 12 C2.49440092 10.56445975 1.9957251 9.1264798 1.5 7.6875 C1.2215625 6.88699219 0.943125 6.08648437 0.65625 5.26171875 C0 3 0 3 0 0 Z " fill="#496287" transform="translate(11,68)"/>
<path d="M0 0 C-0.33 0.99 -0.66 1.98 -1 3 C-1.66 3 -2.32 3 -3 3 C-3 3.66 -3 4.32 -3 5 C-4.65 5.66 -6.3 6.32 -8 7 C-6.4365884 2.43002763 -5.27390657 0 0 0 Z " fill="#587D57" transform="translate(230,112)"/>
<path d="M0 0 C0.66 0 1.32 0 2 0 C1.82374165 2.37948772 1.30280227 3.70225849 -0.40234375 5.37890625 C-1.90649092 6.62115486 -3.45129851 7.81376056 -5 9 C-5.33 8.01 -5.66 7.02 -6 6 C-5.01 6 -4.02 6 -3 6 C-2.67 4.68 -2.34 3.36 -2 2 C-1.34 2 -0.68 2 0 2 C0 1.34 0 0.68 0 0 Z " fill="#728D71" transform="translate(237,103)"/>
<path d="M0 0 C-0.66 3.63 -1.32 7.26 -2 11 C-4 9 -4 9 -4.1953125 7.0546875 C-4.13020833 5.03645833 -4.06510417 3.01822917 -4 1 C-2 0 -2 0 0 0 Z " fill="#07235A" transform="translate(33,41)"/>
<path d="M0 0 C0.33 0.99 0.66 1.98 1 3 C0.67 3.66 0.34 4.32 0 5 C0.66 5 1.32 5 2 5 C2 6.32 2 7.64 2 9 C-0.475 8.01 -0.475 8.01 -3 7 C-2.01 4.69 -1.02 2.38 0 0 Z " fill="#4B1709" transform="translate(258,249)"/>
<path d="M0 0 C0.99 0.33 1.98 0.66 3 1 C2.44271087 4.34373475 1.64826111 7.03312999 0 10 C-0.33 10 -0.66 10 -1 10 C-0.67 6.7 -0.34 3.4 0 0 Z " fill="#398C89" transform="translate(121,207)"/>
<path d="M0 0 C0.66 0 1.32 0 2 0 C2.36923077 5.53846154 2.36923077 5.53846154 0.5 7.875 C-0.2425 8.431875 -0.2425 8.431875 -1 9 C-2.32 8.01 -3.64 7.02 -5 6 C-4.67 5.34 -4.34 4.68 -4 4 C-2.35 4.33 -0.7 4.66 1 5 C0.67 3.35 0.34 1.7 0 0 Z " fill="#082254" transform="translate(115,110)"/>
<path d="M0 0 C0.33 2.64 0.66 5.28 1 8 C-0.875 7.6875 -0.875 7.6875 -3 7 C-3.66 6.01 -4.32 5.02 -5 4 C-1.125 0 -1.125 0 0 0 Z " fill="#5A6082" transform="translate(101,89)"/>
<path d="M0 0 C0.66 0.33 1.32 0.66 2 1 C2.59355614 3.64860427 2.74209269 6.29197322 3 9 C2.01 9 1.02 9 0 9 C-1.125 3.375 -1.125 3.375 0 0 Z " fill="#122C60" transform="translate(94,69)"/>
<path d="M0 0 C3.16115776 1.36983503 3.9927092 1.9890638 6 5 C3.69 5 1.38 5 -1 5 C-1 4.34 -1 3.68 -1 3 C-1.66 2.67 -2.32 2.34 -3 2 C-2.01 1.34 -1.02 0.68 0 0 Z " fill="#434E79" transform="translate(60,64)"/>
<path d="M0 0 C4.51478398 0.53115106 7.34666857 2.36620292 11 5 C10.67 5.66 10.34 6.32 10 7 C8.125 6.75 8.125 6.75 6 6 C5.33333333 4.66666667 4.66666667 3.33333333 4 2 C1.94999129 1.19471111 1.94999129 1.19471111 0 1 C0 0.67 0 0.34 0 0 Z " fill="#50647F" transform="translate(50,29)"/>
<path d="M0 0 C1.258125 0.12375 2.51625 0.2475 3.8125 0.375 C4.87404297 0.47941406 4.87404297 0.47941406 5.95703125 0.5859375 C8 1 8 1 11 3 C10.01 3 9.02 3 8 3 C7.67 3.66 7.34 4.32 7 5 C3.34683329 3.75023244 2.21934164 3.32901247 0 0 Z " fill="#3F557D" transform="translate(64,10)"/>
<path d="M0 0 C0 0.66 0 1.32 0 2 C-0.99 2.66 -1.98 3.32 -3 4 C-4.19232613 6.05003955 -4.19232613 6.05003955 -5 8 C-6.32 7.67 -7.64 7.34 -9 7 C-7.88121617 5.82737096 -6.75476949 4.66204862 -5.625 3.5 C-4.68527344 2.52546875 -4.68527344 2.52546875 -3.7265625 1.53125 C-2 0 -2 0 0 0 Z " fill="#459293" transform="translate(36,159)"/>
<path d="M0 0 C4.12751449 0.60698743 7.3321148 2.03810791 11 4 C8.50907189 5.24546405 7.58919267 4.7767578 5 4 C5 4.66 5 5.32 5 6 C4.34 5.67 3.68 5.34 3 5 C3.33 4.34 3.66 3.68 4 3 C3.34 3 2.68 3 2 3 C2 2.34 2 1.68 2 1 C1.34 0.67 0.68 0.34 0 0 Z " fill="#7F574F" transform="translate(205,143)"/>
<path d="M0 0 C0.33 0 0.66 0 1 0 C2.10228696 4.40914783 2.07654536 8.48382401 2 13 C1.67 12.01 1.34 11.02 1 10 C0.34 10 -0.32 10 -1 10 C-0.67 6.7 -0.34 3.4 0 0 Z " fill="#586C8D" transform="translate(130,86)"/>
<path d="M0 0 C3.48331435 3.01887244 4.79157144 5.56909529 6 10 C4 10 4 10 2.4375 8.9375 C0.35943153 6.13662511 0.32189473 3.41208416 0 0 Z " fill="#4E5E89" transform="translate(115,45)"/>
<path d="M0 0 C2.475 0.495 2.475 0.495 5 1 C5 1.66 5 2.32 5 3 C5.99 3.33 6.98 3.66 8 4 C7.67 4.66 7.34 5.32 7 6 C4.69 5.01 2.38 4.02 0 3 C0 2.01 0 1.02 0 0 Z " fill="#633E38" transform="translate(178,245)"/>
<path d="M0 0 C1.32 0.33 2.64 0.66 4 1 C3.67 1.66 3.34 2.32 3 3 C2.34 3 1.68 3 1 3 C0.34 4.32 -0.32 5.64 -1 7 C-1.625 5.1875 -1.625 5.1875 -2 3 C-1.34 2.01 -0.68 1.02 0 0 Z " fill="#3E8E8D" transform="translate(112,224)"/>
<path d="M0 0 C0.66 0 1.32 0 2 0 C2 2.97 2 5.94 2 9 C1.01 9.495 1.01 9.495 0 10 C-0.19412181 8.52168779 -0.38012131 7.04230684 -0.5625 5.5625 C-0.66691406 4.73878906 -0.77132812 3.91507813 -0.87890625 3.06640625 C-0.91886719 2.38449219 -0.95882812 1.70257813 -1 1 C-0.67 0.67 -0.34 0.34 0 0 Z " fill="#0E6F6F" transform="translate(129,174)"/>
<path d="M0 0 C1.61949011 2.57213134 2.04408751 3.67669159 1.625 6.75 C1.41875 7.4925 1.2125 8.235 1 9 C0.67 8.34 0.34 7.68 0 7 C-0.66 6.67 -1.32 6.34 -2 6 C-2 3 -2 3 0 0 Z " fill="#208B88" transform="translate(26,167)"/>
<path d="M0 0 C1.9375 0.6875 1.9375 0.6875 4 2 C4.75 4.625 4.75 4.625 5 7 C2.37812506 5.95125002 1.20628639 5.35068687 -0.25 2.875 C-0.4975 2.25625 -0.745 1.6375 -1 1 C-0.67 0.67 -0.34 0.34 0 0 Z " fill="#3B5176" transform="translate(107,101)"/>
<path d="M0 0 C2.14418558 3.21627837 2.67582137 5.19090105 3 9 C2.34 9.66 1.68 10.32 1 11 C-0.28317892 7.15046324 -0.06643637 4.05261865 0 0 Z " fill="#3F527B" transform="translate(123,60)"/>
<path d="M0 0 C-0.33 0.66 -0.66 1.32 -1 2 C-5.29 1.67 -9.58 1.34 -14 1 C-14 0.67 -14 0.34 -14 0 C-12.41773035 -0.19627391 -10.83410729 -0.38165538 -9.25 -0.5625 C-8.36828125 -0.66691406 -7.4865625 -0.77132813 -6.578125 -0.87890625 C-4.11567549 -0.99456676 -2.33461936 -0.73638695 0 0 Z " fill="#7885A5" transform="translate(57,25)"/>
<path d="M0 0 C3.34373475 0.55728913 6.03312999 1.35173889 9 3 C8.34 3.66 7.68 4.32 7 5 C7 4.34 7 3.68 7 3 C4.69 3 2.38 3 0 3 C0 2.01 0 1.02 0 0 Z " fill="#465882" transform="translate(77,14)"/>
<path d="M0 0 C0.33 0.66 0.66 1.32 1 2 C1.66 2.33 2.32 2.66 3 3 C2 4 2 4 -0.50390625 4.09765625 C-2.01791016 4.08025391 -2.01791016 4.08025391 -3.5625 4.0625 C-4.57441406 4.05347656 -5.58632813 4.04445313 -6.62890625 4.03515625 C-7.41136719 4.02355469 -8.19382813 4.01195312 -9 4 C-9 3.67 -9 3.34 -9 3 C-7.88625 2.87625 -6.7725 2.7525 -5.625 2.625 C-1.96896323 2.3534187 -1.96896323 2.3534187 0 0 Z " fill="#0C7473" transform="translate(62,253)"/>
<path d="M0 0 C0.33 0 0.66 0 1 0 C1 3.96 1 7.92 1 12 C-0.32 12.33 -1.64 12.66 -3 13 C-2.68289062 12.43796875 -2.36578125 11.8759375 -2.0390625 11.296875 C-0.93125475 8.84803683 -0.61024601 6.91612145 -0.375 4.25 C-0.30023438 3.45078125 -0.22546875 2.6515625 -0.1484375 1.828125 C-0.09945312 1.22484375 -0.05046875 0.6215625 0 0 Z " fill="#697496" transform="translate(109,67)"/>
<path d="M0 0 C2 1 2 1 2.75 2.9375 C2.8325 3.618125 2.915 4.29875 3 5 C2.34 5.66 1.68 6.32 1 7 C-1.125 6.625 -1.125 6.625 -3 6 C-2.34 5.34 -1.68 4.68 -1 4 C-0.3574765 1.93125966 -0.3574765 1.93125966 0 0 Z " fill="#01296B" transform="translate(70,76)"/>
<path d="M0 0 C2.88575819 0.39803561 3.82189513 0.79009069 5.75 3.0625 C6.1625 3.701875 6.575 4.34125 7 5 C6.01 5.33 5.02 5.66 4 6 C3.67 5.34 3.34 4.68 3 4 C2.01 3.34 1.02 2.68 0 2 C0 1.34 0 0.68 0 0 Z " fill="#324671" transform="translate(64,69)"/>
<path d="M0 0 C0.99 0.33 1.98 0.66 3 1 C3 1.66 3 2.32 3 3 C2.34 3 1.68 3 1 3 C0.67 5.31 0.34 7.62 0 10 C-0.33 10 -0.66 10 -1 10 C-1.125 2.25 -1.125 2.25 0 0 Z " fill="#414D77" transform="translate(93,66)"/>
<path d="M0 0 C-0.33 0.99 -0.66 1.98 -1 3 C-1.66 3 -2.32 3 -3 3 C-3 3.66 -3 4.32 -3 5 C-3.99 4.67 -4.98 4.34 -6 4 C-6 3.01 -6 2.02 -6 1 C-3 0 -3 0 0 0 Z " fill="#263C65" transform="translate(95,60)"/>
<path d="M0 0 C4.75 0.875 4.75 0.875 7 2 C7 2.66 7 3.32 7 4 C7.66 4.33 8.32 4.66 9 5 C7.68 5 6.36 5 5 5 C5 4.34 5 3.68 5 3 C4.360625 2.87625 3.72125 2.7525 3.0625 2.625 C2.381875 2.41875 1.70125 2.2125 1 2 C0.67 1.34 0.34 0.68 0 0 Z " fill="#576385" transform="translate(33,60)"/>
<path d="M0 0 C1.98 1.65 3.96 3.3 6 5 C4 7 4 7 2 8 C1.34 5.36 0.68 2.72 0 0 Z " fill="#394C79" transform="translate(103,30)"/>
<path d="M0 0 C0.33 0.66 0.66 1.32 1 2 C-1.88211302 2.96070434 -3.69850044 3.10581883 -6.6875 3.0625 C-7.89986328 3.04896484 -7.89986328 3.04896484 -9.13671875 3.03515625 C-10.05904297 3.01775391 -10.05904297 3.01775391 -11 3 C-7.11595442 0.41063628 -4.5725325 -0.12358196 0 0 Z " fill="#112352" transform="translate(50,29)"/>
<path d="M0 0 C1.32 0.66 2.64 1.32 4 2 C2.576875 2.37125 2.576875 2.37125 1.125 2.75 C-2.08693191 3.6857077 -2.08693191 3.6857077 -3.375 6.125 C-3.58125 6.74375 -3.7875 7.3625 -4 8 C-4 6.35 -4 4.7 -4 3 C-3.01 3 -2.02 3 -1 3 C-0.67 2.01 -0.34 1.02 0 0 Z " fill="#3E5777" transform="translate(48,76)"/>
<path d="M0 0 C-0.33 0.99 -0.66 1.98 -1 3 C-1.99 2.34 -2.98 1.68 -4 1 C-5.9896995 0.60986284 -7.99019869 0.26797351 -10 0 C-10 -0.33 -10 -0.66 -10 -1 C-5.94568308 -2.15837626 -3.78187881 -1.83691257 0 0 Z " fill="#4D5979" transform="translate(62,77)"/>
<path d="M0 0 C0.99 0 1.98 0 3 0 C3.79953138 3.28696233 4.09658936 4.71023192 3 8 C2.34 8 1.68 8 1 8 C0.67 5.36 0.34 2.72 0 0 Z " fill="#2C4175" transform="translate(119,55)"/>
<path d="M0 0 C0.66 0 1.32 0 2 0 C1.40138258 2.35171131 0.73075648 4.6859378 0 7 C-0.99 7.495 -0.99 7.495 -2 8 C-2.125 5.125 -2.125 5.125 -2 2 C-1.34 1.34 -0.68 0.68 0 0 Z " fill="#42527A" transform="translate(27,33)"/>
<path d="M0 0 C0.66 0.33 1.32 0.66 2 1 C1.401875 1.268125 0.80375 1.53625 0.1875 1.8125 C-1.97224808 2.98493467 -3.35790256 4.19369282 -5 6 C-5.99 5.34 -6.98 4.68 -8 4 C-6.71349294 3.30289269 -5.42059335 2.61757124 -4.125 1.9375 C-3.40570313 1.55464844 -2.68640625 1.17179688 -1.9453125 0.77734375 C-1.30335938 0.52082031 -0.66140625 0.26429687 0 0 Z " fill="#688566" transform="translate(191,13)"/>
<path d="M0 0 C0.66 0.33 1.32 0.66 2 1 C2 2.32 2 3.64 2 5 C1.34 5 0.68 5 0 5 C0 6.98 0 8.96 0 11 C-0.33 11 -0.66 11 -1 11 C-1.125 3.375 -1.125 3.375 0 0 Z " fill="#385581" transform="translate(106,91)"/>
<path d="M0 0 C0.99 0.33 1.98 0.66 3 1 C3 2.32 3 3.64 3 5 C1.68 4.67 0.36 4.34 -1 4 C-0.67 2.68 -0.34 1.36 0 0 Z " fill="#03296B" transform="translate(95,85)"/>
<path d="M0 0 C0.99 0 1.98 0 3 0 C2.42655063 2.86724686 2.1385485 3.8614515 0 6 C-0.38218767 4.34385343 -0.71395102 2.67542976 -1 1 C-0.67 0.67 -0.34 0.34 0 0 Z " fill="#203274" transform="translate(65,79)"/>
<path d="M0 0 C3.465 1.98 3.465 1.98 7 4 C7 4.33 7 4.66 7 5 C4.625 5.125 4.625 5.125 2 5 C1.34 4.34 0.68 3.68 0 3 C0 2.01 0 1.02 0 0 Z " fill="#505F82" transform="translate(31,63)"/>
<path d="M0 0 C3 3.75 3 3.75 3 6 C3.66 6 4.32 6 5 6 C4.67 6.66 4.34 7.32 4 8 C2.68 7.34 1.36 6.68 0 6 C0 4.02 0 2.04 0 0 Z " fill="#526185" transform="translate(26,55)"/>
<path d="M0 0 C0.66 0.33 1.32 0.66 2 1 C-0.46153846 4.81538462 -0.46153846 4.81538462 -3.1875 5.75 C-3.785625 5.8325 -4.38375 5.915 -5 6 C-3.63016497 2.83884224 -3.0109362 2.0072908 0 0 Z " fill="#6C8A6D" transform="translate(170,25)"/>
<path d="M0 0 C0.99 0.99 1.98 1.98 3 3 C0.69 3.66 -1.62 4.32 -4 5 C-3.6875 3.0625 -3.6875 3.0625 -3 1 C-2.01 0.67 -1.02 0.34 0 0 Z " fill="#1E3871" transform="translate(100,27)"/>
<path d="" fill="#FFFFFF" transform="translate(0,0)"/>
<path d="" fill="#FFFFFF" transform="translate(0,0)"/>
<path d="" fill="#FFFFFF" transform="translate(0,0)"/>
</svg>
